<?xml version="1.0" encoding="UTF-8" standalone="no"?>
<svg
   xmlns:dc="http://purl.org/dc/elements/1.1/"
   xmlns:cc="http://creativecommons.org/ns#"
   xmlns:rdf="http://www.w3.org/1999/02/22-rdf-syntax-ns#"
   xmlns:svg="http://www.w3.org/2000/svg"
   xmlns="http://www.w3.org/2000/svg"
   xmlns:sodipodi="http://sodipodi.sourceforge.net/DTD/sodipodi-0.dtd"
   xmlns:inkscape="http://www.inkscape.org/namespaces/inkscape"
   viewBox="0 0 652.89379 668.13684"
   version="1.1"
   id="svg77"
   sodipodi:docname="git-forkclone.svg"
   width="652.8938"
   height="668.13684"
   inkscape:version="1.0.2 (e86c870879, 2021-01-15)"
   inkscape:export-filename="/home/mquinson/Teaching/rennes/retrogames/docs/source/images/git-forkclone.png"
   inkscape:export-xdpi="67"
   inkscape:export-ydpi="67">
  <metadata
     id="metadata83">
    <rdf:RDF>
      <cc:Work
         rdf:about="">
        <dc:format>image/svg+xml</dc:format>
        <dc:type
           rdf:resource="http://purl.org/dc/dcmitype/StillImage" />
        <dc:title></dc:title>
      </cc:Work>
    </rdf:RDF>
  </metadata>
  <defs
     id="defs81">
    <rect
       x="439.36066"
       y="845.34369"
       width="269.43723"
       height="265.37286"
       id="rect2032" />
    <marker
       style="overflow:visible"
       id="Arrow1Mend"
       refX="0"
       refY="0"
       orient="auto"
       inkscape:stockid="Arrow1Mend"
       inkscape:isstock="true">
      <path
         transform="matrix(-0.4,0,0,-0.4,-4,0)"
         style="fill:#fc5700;fill-opacity:1;fill-rule:evenodd;stroke:#fc5700;stroke-width:1pt;stroke-opacity:1"
         d="M 0,0 5,-5 -12.5,0 5,5 Z"
         id="path1211" />
    </marker>
    <marker
       style="overflow:visible"
       id="Arrow1Lend"
       refX="0"
       refY="0"
       orient="auto"
       inkscape:stockid="Arrow1Lend"
       inkscape:isstock="true">
      <path
         transform="matrix(-0.8,0,0,-0.8,-10,0)"
         style="fill:#b18be8;fill-opacity:1;fill-rule:evenodd;stroke:#b18be8;stroke-width:1pt;stroke-opacity:1"
         d="M 0,0 5,-5 -12.5,0 5,5 Z"
         id="path1205" />
    </marker>
    <marker
       style="overflow:visible"
       id="Arrow1Mend-8"
       refX="0"
       refY="0"
       orient="auto"
       inkscape:stockid="Arrow1Mend"
       inkscape:isstock="true">
      <path
         transform="matrix(-0.4,0,0,-0.4,-4,0)"
         style="fill:#ffcc00;fill-opacity:1;fill-rule:evenodd;stroke:#ffcc00;stroke-width:1pt;stroke-opacity:1"
         d="M 0,0 5,-5 -12.5,0 5,5 Z"
         id="path1211-9" />
    </marker>
  </defs>
  <sodipodi:namedview
     pagecolor="#ffffff"
     bordercolor="#666666"
     borderopacity="1"
     objecttolerance="10"
     gridtolerance="10"
     guidetolerance="10"
     inkscape:pageopacity="0"
     inkscape:pageshadow="2"
     inkscape:window-width="1920"
     inkscape:window-height="1023"
     id="namedview79"
     showgrid="false"
     fit-margin-top="0"
     fit-margin-left="0"
     fit-margin-right="0"
     fit-margin-bottom="0"
     inkscape:zoom="0.64738955"
     inkscape:cx="266.87868"
     inkscape:cy="337.47221"
     inkscape:window-x="0"
     inkscape:window-y="33"
     inkscape:window-maximized="1"
     inkscape:current-layer="svg77" />
  <style
     id="style2">.st0{display:none;} .st1{display:inline;} .st2{fill:#FFFFFF;} .st3{fill:none;stroke:#9882CE;stroke-width:4;stroke-miterlimit:10;} .st4{fill:#FFFFFF;stroke:#404040;stroke-width:4;stroke-linecap:round;stroke-linejoin:round;stroke-miterlimit:10;} .st5{fill:#FFFFFF;stroke:#404040;stroke-width:4;stroke-miterlimit:10;} .st6{fill:#B3E3FF;stroke:#404040;stroke-width:4;stroke-miterlimit:10;} .st7{fill:#B18BE8;stroke:#404040;stroke-width:4;stroke-miterlimit:10;} .st8{fill:#FFFFFF;stroke:#404040;stroke-width:6;stroke-miterlimit:10;} .st9{fill:#B3E3FF;stroke:#404040;stroke-width:6;stroke-miterlimit:10;} .st10{fill:#404040;} .st11{fill:none;stroke:#404040;stroke-width:4;stroke-linecap:round;stroke-linejoin:round;stroke-miterlimit:10;} .st12{fill:#B18BE8;stroke:#404040;stroke-width:4;stroke-linecap:round;stroke-linejoin:round;stroke-miterlimit:10;} .st13{fill:#444444;} .st14{fill:none;stroke:#404040;stroke-width:4;stroke-miterlimit:10;} .st15{fill:#4ED1A1;stroke:#404040;stroke-width:4;stroke-miterlimit:10;} .st16{fill:none;stroke:#CCCCCC;stroke-width:7;stroke-linecap:round;stroke-linejoin:round;stroke-miterlimit:10;} .st17{fill:#FFFFFF;stroke:#CCCCCC;stroke-width:7;stroke-linecap:round;stroke-linejoin:round;stroke-miterlimit:10;} .st18{fill:none;stroke:#404040;stroke-width:7;stroke-miterlimit:10;} .st19{fill:#B3E3FF;stroke:#404040;stroke-width:7;stroke-miterlimit:10;} .st20{fill:none;stroke:#CCCCCC;stroke-width:8;stroke-linecap:round;stroke-miterlimit:10;} .st21{fill:none;stroke:#404040;stroke-width:8;stroke-linecap:round;stroke-miterlimit:10;} .st22{fill:#FFFFFF;stroke:#404040;stroke-width:4;stroke-linejoin:round;stroke-miterlimit:10;} .st23{fill:#B3E3FF;stroke:#404040;stroke-width:4;stroke-linejoin:round;stroke-miterlimit:10;} .st24{fill:none;stroke:#CCCCCC;stroke-linecap:round;stroke-linejoin:round;stroke-miterlimit:10;} .st25{fill:#999999;} .st26{fill:#4ED1A1;stroke:#404040;stroke-width:4;stroke-linecap:round;stroke-linejoin:round;stroke-miterlimit:10;} .st27{fill:#4CD3D6;stroke:#404040;stroke-width:4;stroke-linejoin:round;stroke-miterlimit:10;} .st28{fill:none;stroke:#59AFE1;stroke-width:4;stroke-miterlimit:10;} .st29{fill:#59AFE1;stroke:#404040;stroke-width:4;stroke-linejoin:round;stroke-miterlimit:10;} .st30{fill:none;stroke:#404040;stroke-width:8;stroke-linecap:round;stroke-linejoin:round;stroke-miterlimit:10;stroke-dasharray:0,30;} .st31{fill:#FFFFFF;stroke:#59AFE1;stroke-width:4;stroke-miterlimit:10;} .st32{fill:#FC8363;stroke:#404040;stroke-width:4;stroke-linecap:round;stroke-linejoin:round;stroke-miterlimit:10;} .st33{fill:#CCCCCC;stroke:#404040;stroke-width:4;stroke-miterlimit:10;} .st34{fill:#FFFFFF;stroke:#6693ED;stroke-width:4;stroke-miterlimit:10;} .st35{fill:none;stroke:#A97CDD;stroke-width:4;stroke-linecap:round;stroke-linejoin:round;stroke-miterlimit:10;} .st36{fill:none;stroke:#B3E3FF;stroke-width:4;stroke-linecap:round;stroke-linejoin:round;stroke-miterlimit:10;} .st37{fill:none;stroke:#4ED1A1;stroke-width:4;stroke-linecap:round;stroke-miterlimit:10;} .st38{fill:none;stroke:#4ED1A1;stroke-width:4;stroke-linecap:round;stroke-linejoin:round;stroke-miterlimit:10;} .st39{fill:#E24B88;stroke:#404040;stroke-width:4;stroke-linecap:round;stroke-linejoin:round;stroke-miterlimit:10;} .st40{fill:none;stroke:#DEEFF8;stroke-width:4;stroke-miterlimit:10;} .st41{fill:none;stroke:#CCCCCC;stroke-width:4;stroke-linecap:round;stroke-linejoin:round;} .st42{fill:none;stroke:#CCCCCC;stroke-width:4;stroke-linecap:round;stroke-linejoin:round;stroke-dasharray:0,14.3051;} .st43{fill:none;stroke:#CCCCCC;stroke-width:4;stroke-linecap:round;stroke-linejoin:round;stroke-dasharray:0,14.1689;} .st44{fill:none;stroke:#CCCCCC;stroke-width:4;stroke-linecap:round;stroke-linejoin:round;stroke-dasharray:0,13.9788;} .st45{fill:none;stroke:#CCCCCC;stroke-width:4;stroke-linecap:round;stroke-linejoin:round;stroke-dasharray:0,14.7877;} .st46{fill:none;stroke:#CCCCCC;stroke-width:4;stroke-linecap:round;stroke-linejoin:round;stroke-dasharray:0,14.9632;} .st47{fill:#B3E3FF;stroke:#404040;stroke-width:4;stroke-linecap:round;stroke-linejoin:round;stroke-miterlimit:10;} .st48{fill:none;stroke:#CCCCCC;stroke-width:4;stroke-linecap:round;stroke-linejoin:round;stroke-dasharray:0,12.543;} .st49{fill:none;stroke:#CCCCCC;stroke-width:4;stroke-linecap:round;stroke-linejoin:round;stroke-dasharray:0,13.6844;} .st50{fill:none;stroke:#CCCCCC;stroke-width:4;stroke-linecap:round;stroke-linejoin:round;stroke-dasharray:0,13.7717;} .st51{fill:none;stroke:#CCCCCC;stroke-width:4;stroke-linecap:round;stroke-linejoin:round;stroke-dasharray:0,13.6492;} .st52{fill:none;stroke:#CCCCCC;stroke-width:4;stroke-linecap:round;stroke-linejoin:round;stroke-dasharray:0,13.907;} .st53{fill:#4CD3D6;stroke:#404040;stroke-width:4;stroke-linecap:round;stroke-linejoin:round;stroke-miterlimit:10;} .st54{fill:none;stroke:#CCCCCC;stroke-width:4;stroke-linecap:round;stroke-linejoin:round;stroke-dasharray:0,14.9858;} .st55{fill:none;stroke:#CCCCCC;stroke-width:4;stroke-linecap:round;stroke-linejoin:round;stroke-dasharray:0,14.0118;} .st56{fill:none;stroke:#CCCCCC;stroke-width:4;stroke-linecap:round;stroke-linejoin:round;stroke-dasharray:0,14.1243;} .st57{fill:none;} .st58{fill:#FFFFFF;stroke:#404040;stroke-width:7;stroke-linecap:round;stroke-linejoin:round;stroke-miterlimit:10;} .st59{fill:#59AFE1;stroke:#404040;stroke-width:7;stroke-linejoin:round;stroke-miterlimit:10;} .st60{fill:#E24B88;stroke:#404040;stroke-width:7;stroke-linecap:round;stroke-linejoin:round;stroke-miterlimit:10;} .st61{fill:none;stroke:#404040;stroke-width:7;stroke-linecap:round;stroke-linejoin:round;stroke-miterlimit:10;} .st62{fill:none;stroke:#CCCCCC;stroke-width:4;stroke-linecap:round;stroke-linejoin:round;stroke-miterlimit:10;} .st63{fill:#FFFFFF;stroke:#CCCCCC;stroke-width:4;stroke-linecap:round;stroke-linejoin:round;stroke-miterlimit:10;} .st64{fill:#F5F5F5;} .st65{fill:#3873AE;} .st66{fill:#75706C;} .st67{fill:none;stroke:#B3E3FF;stroke-width:4;stroke-miterlimit:10;} .st68{fill:#6F6F6F;} .st69{fill:none;stroke:#6F6F6F;stroke-width:2;stroke-miterlimit:10;} .st70{fill:none;stroke:#6F6F6F;stroke-width:3;stroke-miterlimit:10;}</style>
  <g
     id="g1940"
     transform="translate(223.82762,-13.811029)">
    <path
       id="repo1_264_-3"
       class="st6"
       d="m 217.20292,217.73415 c 0,-12.4 28.2,-22.4 63,-22.4 34.8,0 63,10 63,22.4 m -126,0 v 27.9 c 0,3 1.7,5.9 4.7,8.5 9.4,8.2 32,13.9 58.3,13.9 26.4,0 48.9,-5.8 58.3,-13.9 3,-2.6 4.7,-5.5 4.7,-8.5 v -27.9"
       style="fill:#fc5700;fill-opacity:1;stroke:#404040;stroke-width:4;stroke-miterlimit:10" />
    <path
       class="st34"
       d="m 343.20292,217.73415 c 0,12.4 -28.2,22.4 -63,22.4 -34.8,0 -63,-10 -63,-22.4 0,-12.4 28.2,-22.4 63,-22.4 34.8,0 63,10 63,22.4 z"
       id="path17-6"
       style="fill:#ffffff;stroke:#6693ed;stroke-width:4;stroke-miterlimit:10" />
    <path
       id="repo1_263_-7"
       class="st6"
       d="m 217.20292,189.83415 c 0,-12.4 28.2,-22.4 63,-22.4 34.8,0 63,10 63,22.4 m -126,0 v 27.9 c 0,3 1.7,5.9 4.7,8.5 9.4,8.2 32,13.9 58.3,13.9 26.4,0 48.9,-5.8 58.3,-13.9 3,-2.6 4.7,-5.5 4.7,-8.5 v -27.9"
       style="fill:#fc5700;fill-opacity:1;stroke:#404040;stroke-width:4;stroke-miterlimit:10" />
    <path
       class="st34"
       d="m 343.20292,189.83415 c 0,12.4 -28.2,22.4 -63,22.4 -34.8,0 -63,-10 -63,-22.4 0,-12.4 28.2,-22.4 63,-22.4 34.8,0 63,10 63,22.4 z"
       id="path20-5"
       style="fill:#ffffff;stroke:#6693ed;stroke-width:4;stroke-miterlimit:10" />
    <path
       id="repo1_262_-3"
       class="st6"
       d="m 217.20292,161.93415 c 0,-12.4 28.2,-22.4 63,-22.4 34.8,0 63,10 63,22.4 m -126,0 v 27.9 c 0,3 1.7,5.9 4.7,8.5 9.4,8.2 32,13.9 58.3,13.9 26.4,0 48.9,-5.8 58.3,-13.9 3,-2.6 4.7,-5.5 4.7,-8.5 v -27.9"
       style="fill:#fc5700;fill-opacity:1;stroke:#404040;stroke-width:4;stroke-miterlimit:10" />
    <path
       class="st34"
       d="m 343.20292,161.93415 c 0,12.4 -28.2,22.4 -63,22.4 -34.8,0 -63,-10 -63,-22.4 0,-12.4 28.2,-22.4 63,-22.4 34.8,0 63,10 63,22.4 z"
       id="path23-5"
       style="fill:#ffffff;stroke:#6693ed;stroke-width:4;stroke-miterlimit:10" />
    <path
       id="repo1_261_-6"
       class="st6"
       d="m 217.20292,134.03415 c 0,-12.4 28.2,-22.4 63,-22.4 34.8,0 63,10 63,22.4 m -126,0 v 27.9 c 0,3 1.7,5.9 4.7,8.5 9.4,8.2 32,13.9 58.3,13.9 26.4,0 48.9,-5.8 58.3,-13.9 3,-2.6 4.7,-5.5 4.7,-8.5 v -27.9"
       style="fill:#fc5700;fill-opacity:1;stroke:#404040;stroke-width:4;stroke-miterlimit:10" />
    <path
       class="st5"
       d="m 343.20292,134.03415 c 0,12.4 -28.2,22.4 -63,22.4 -34.8,0 -63,-10 -63,-22.4 0,-12.4 28.2,-22.4 63,-22.4 34.8,0 63,10 63,22.4 z"
       id="path26-2"
       style="fill:#ffffff;stroke:#404040;stroke-width:4;stroke-miterlimit:10" />
  </g>
  <text
     xml:space="preserve"
     style="font-weight:bold;font-size:48px;line-height:45px;font-family:serif;-inkscape-font-specification:'serif Bold';text-align:center;text-decoration:none;text-decoration-line:none;text-decoration-color:#000000;letter-spacing:0px;word-spacing:0px;text-anchor:middle;fill:#000000;stroke:none;stroke-width:0.999999px;stroke-linecap:butt;stroke-linejoin:miter;stroke-opacity:1;stop-color:#000000"
     x="129.38672"
     y="35.320312"
     id="text1000"><tspan
       sodipodi:role="line"
       id="tspan998"
       x="129.38672"
       y="35.320312"
       style="font-style:normal;font-variant:normal;font-weight:normal;font-stretch:normal;font-family:serif;-inkscape-font-specification:serif">My project</tspan><tspan
       sodipodi:role="line"
       x="129.38672"
       y="80.320312"
       id="tspan1984"
       style="font-style:normal;font-variant:normal;font-weight:normal;font-stretch:normal;font-family:serif;-inkscape-font-specification:serif">on GitLab</tspan><tspan
       sodipodi:role="line"
       x="129.38672"
       y="125.32031"
       id="tspan1002"
       style="font-style:normal;font-variant:normal;font-weight:normal;font-stretch:normal;font-family:serif;-inkscape-font-specification:serif" /></text>
  <path
     id="repo1_264_"
     class="st6"
     d="m 440.97608,504.72915 c 0,-12.4 28.2,-22.4 63,-22.4 34.8,0 63,10 63,22.4 m -126,0 v 27.9 c 0,3 1.7,5.9 4.7,8.5 9.4,8.2 32,13.9 58.3,13.9 26.4,0 48.9,-5.8 58.3,-13.9 3,-2.6 4.7,-5.5 4.7,-8.5 v -27.9"
     style="fill:#ffeeaa;fill-opacity:1" />
  <path
     class="st34"
     d="m 566.97608,504.72915 c 0,12.4 -28.2,22.4 -63,22.4 -34.8,0 -63,-10 -63,-22.4 0,-12.4 28.2,-22.4 63,-22.4 34.8,0 63,10 63,22.4 z"
     id="path17"
     style="fill:#ffeeaa;fill-opacity:1" />
  <path
     id="repo1_263_"
     class="st6"
     d="m 440.97608,476.82915 c 0,-12.4 28.2,-22.4 63,-22.4 34.8,0 63,10 63,22.4 m -126,0 v 27.9 c 0,3 1.7,5.9 4.7,8.5 9.4,8.2 32,13.9 58.3,13.9 26.4,0 48.9,-5.8 58.3,-13.9 3,-2.6 4.7,-5.5 4.7,-8.5 v -27.9"
     style="fill:#ffeeaa;fill-opacity:1" />
  <path
     class="st34"
     d="m 566.97608,476.82915 c 0,12.4 -28.2,22.4 -63,22.4 -34.8,0 -63,-10 -63,-22.4 0,-12.4 28.2,-22.4 63,-22.4 34.8,0 63,10 63,22.4 z"
     id="path20"
     style="fill:#ffeeaa;fill-opacity:1" />
  <path
     id="repo1_262_"
     class="st6"
     d="m 440.97608,448.92915 c 0,-12.4 28.2,-22.4 63,-22.4 34.8,0 63,10 63,22.4 m -126,0 v 27.9 c 0,3 1.7,5.9 4.7,8.5 9.4,8.2 32,13.9 58.3,13.9 26.4,0 48.9,-5.8 58.3,-13.9 3,-2.6 4.7,-5.5 4.7,-8.5 v -27.9"
     style="fill:#ffeeaa;fill-opacity:1" />
  <path
     class="st34"
     d="m 566.97608,448.92915 c 0,12.4 -28.2,22.4 -63,22.4 -34.8,0 -63,-10 -63,-22.4 0,-12.4 28.2,-22.4 63,-22.4 34.8,0 63,10 63,22.4 z"
     id="path23"
     style="fill:#ffeeaa;fill-opacity:1" />
  <path
     id="repo1_261_"
     class="st6"
     d="m 440.97608,421.02915 c 0,-12.4 28.2,-22.4 63,-22.4 34.8,0 63,10 63,22.4 m -126,0 v 27.9 c 0,3 1.7,5.9 4.7,8.5 9.4,8.2 32,13.9 58.3,13.9 26.4,0 48.9,-5.8 58.3,-13.9 3,-2.6 4.7,-5.5 4.7,-8.5 v -27.9"
     style="fill:#ffeeaa;fill-opacity:1" />
  <path
     class="st5"
     d="m 566.97608,421.02915 c 0,12.4 -28.2,22.4 -63,22.4 -34.8,0 -63,-10 -63,-22.4 0,-12.4 28.2,-22.4 63,-22.4 34.8,0 63,10 63,22.4 z"
     id="path26" />
  <path
     style="fill:#fc5700;fill-opacity:1;fill-rule:evenodd;stroke:#fc5700;stroke-width:5;stroke-linecap:butt;stroke-linejoin:miter;stroke-miterlimit:4;stroke-dasharray:none;stroke-opacity:1;marker-end:url(#Arrow1Mend)"
     d="m 210.61723,188.69426 210.77234,-1.31492"
     id="path1200"
     sodipodi:nodetypes="cc" />
  <path
     style="fill:#ffcc00;fill-opacity:1;fill-rule:evenodd;stroke:#ffcc00;stroke-width:5;stroke-linecap:butt;stroke-linejoin:miter;stroke-miterlimit:4;stroke-dasharray:none;stroke-opacity:1;marker-end:url(#Arrow1Mend-8)"
     d="m 503.0095,259.97952 0.52753,134.56849"
     id="path1200-7"
     sodipodi:nodetypes="cc" />
  <text
     xml:space="preserve"
     style="font-style:normal;font-variant:normal;font-weight:bold;font-stretch:normal;font-size:32px;line-height:30px;font-family:serif;-inkscape-font-specification:'serif Bold';text-align:center;text-decoration:none;text-decoration-line:none;text-decoration-color:#000000;letter-spacing:0px;word-spacing:0px;text-anchor:middle;fill:#000000;stroke:none;stroke-width:0.999999px;stroke-linecap:butt;stroke-linejoin:miter;stroke-opacity:1;stop-color:#000000"
     x="560.26727"
     y="327.20999"
     id="text1000-9-2-3"><tspan
       sodipodi:role="line"
       x="560.26727"
       y="327.20999"
       id="tspan1002-2-2-6">clone</tspan></text>
  <text
     xml:space="preserve"
     style="font-style:normal;font-variant:normal;font-weight:normal;font-stretch:normal;font-size:48px;line-height:45px;font-family:serif;-inkscape-font-specification:serif;text-align:center;text-decoration:none;text-decoration-line:none;text-decoration-color:#000000;letter-spacing:0px;word-spacing:0px;text-anchor:middle;fill:#000000;stroke:none;stroke-width:0.999999px;stroke-linecap:butt;stroke-linejoin:miter;stroke-opacity:1;stop-color:#000000"
     x="503.22824"
     y="612.47278"
     id="text1000-9-2-3-0"><tspan
       sodipodi:role="line"
       x="503.22824"
       y="612.47278"
       id="tspan1002-2-2-6-6"
       style="font-size:48px">Your local </tspan><tspan
       sodipodi:role="line"
       x="503.22824"
       y="657.47278"
       style="font-size:48px"
       id="tspan2036">repository</tspan></text>
  <g
     id="g1930"
     transform="translate(119.58187,-30.961994)">
    <path
       id="repo1_264_-3-6"
       class="st6"
       d="m -52.18734,234.88511 c 0,-12.4 28.2,-22.4 63,-22.4 34.8,0 63,10 63,22.4 m -126,0 v 27.90001 c 0,3 1.7,5.89999 4.7,8.5 9.4,8.19999 32,13.89999 58.3,13.89999 26.4,0 48.9,-5.8 58.3,-13.89999 3,-2.60001 4.7,-5.5 4.7,-8.5 v -27.90001"
       style="fill:#fc5700;fill-opacity:1;stroke:#404040;stroke-width:4;stroke-miterlimit:10" />
    <path
       class="st34"
       d="m 73.81266,234.88511 c 0,12.40001 -28.2,22.40001 -63,22.40001 -34.8,0 -63,-10 -63,-22.40001 0,-12.4 28.2,-22.4 63,-22.4 34.8,0 63,10 63,22.4 z"
       id="path17-6-1"
       style="fill:#ffffff;stroke:#6693ed;stroke-width:4;stroke-miterlimit:10" />
    <path
       id="repo1_263_-7-1"
       class="st6"
       d="m -52.18734,206.98511 c 0,-12.4 28.2,-22.4 63,-22.4 34.8,0 63,10 63,22.4 m -126,0 v 27.9 c 0,3 1.7,5.90001 4.7,8.5 9.4,8.2 32,13.90001 58.3,13.90001 26.4,0 48.9,-5.80001 58.3,-13.90001 3,-2.59999 4.7,-5.5 4.7,-8.5 v -27.9"
       style="fill:#fc5700;fill-opacity:1;stroke:#404040;stroke-width:4;stroke-miterlimit:10" />
    <path
       class="st34"
       d="m 73.81266,206.98511 c 0,12.4 -28.2,22.4 -63,22.4 -34.8,0 -63,-10 -63,-22.4 0,-12.4 28.2,-22.4 63,-22.4 34.8,0 63,10 63,22.4 z"
       id="path20-5-5"
       style="fill:#ffffff;stroke:#6693ed;stroke-width:4;stroke-miterlimit:10" />
    <path
       id="repo1_262_-3-9"
       class="st6"
       d="m -52.18734,179.08511 c 0,-12.4 28.2,-22.4 63,-22.4 34.8,0 63,10 63,22.4 m -126,0 v 27.9 c 0,3 1.7,5.9 4.7,8.5 9.4,8.2 32,13.9 58.3,13.9 26.4,0 48.9,-5.8 58.3,-13.9 3,-2.6 4.7,-5.5 4.7,-8.5 v -27.9"
       style="fill:#fc5700;fill-opacity:1;stroke:#404040;stroke-width:4;stroke-miterlimit:10" />
    <path
       class="st34"
       d="m 73.81266,179.08511 c 0,12.4 -28.2,22.4 -63,22.4 -34.8,0 -63,-10 -63,-22.4 0,-12.4 28.2,-22.4 63,-22.4 34.8,0 63,10 63,22.4 z"
       id="path23-5-8"
       style="fill:#ffffff;stroke:#6693ed;stroke-width:4;stroke-miterlimit:10" />
    <path
       id="repo1_261_-6-4"
       class="st6"
       d="m -52.18734,151.18511 c 0,-12.39999 28.2,-22.39999 63,-22.39999 34.8,0 63,10 63,22.39999 m -126,0 v 27.90001 c 0,3 1.7,5.89999 4.7,8.5 9.4,8.2 32,13.89999 58.3,13.89999 26.4,0 48.9,-5.8 58.3,-13.89999 3,-2.60001 4.7,-5.5 4.7,-8.5 v -27.90001"
       style="fill:#fc5700;fill-opacity:1;stroke:#404040;stroke-width:4;stroke-miterlimit:10" />
    <path
       class="st5"
       d="m 73.81266,151.18511 c 0,12.40001 -28.2,22.40001 -63,22.40001 -34.8,0 -63,-10 -63,-22.40001 0,-12.39999 28.2,-22.39999 63,-22.39999 34.8,0 63,10 63,22.39999 z"
       id="path26-2-8"
       style="fill:#ffffff;stroke:#404040;stroke-width:4;stroke-miterlimit:10" />
  </g>
  <text
     xml:space="preserve"
     style="font-style:normal;font-variant:normal;font-weight:normal;font-stretch:normal;font-size:32px;line-height:30px;font-family:serif;-inkscape-font-specification:serif;text-align:center;text-decoration:none;text-decoration-line:none;text-decoration-color:#000000;letter-spacing:0px;word-spacing:0px;text-anchor:middle;fill:#000000;stroke:none;stroke-width:0.999999px;stroke-linecap:butt;stroke-linejoin:miter;stroke-opacity:1;stop-color:#000000"
     x="305.02902"
     y="172.7254"
     id="text1000-9-2-1"><tspan
       sodipodi:role="line"
       x="305.02902"
       y="172.7254"
       id="tspan1002-2-2-0"
       style="font-style:normal;font-variant:normal;font-weight:bold;font-stretch:normal;font-family:serif;-inkscape-font-specification:'serif Bold'">fork</tspan></text>
  <text
     xml:space="preserve"
     style="font-weight:bold;font-size:48px;line-height:45px;font-family:serif;-inkscape-font-specification:'serif Bold';text-align:center;text-decoration:none;text-decoration-line:none;text-decoration-color:#000000;letter-spacing:0px;word-spacing:0px;text-anchor:middle;fill:#000000;stroke:none;stroke-width:0.999999px;stroke-linecap:butt;stroke-linejoin:miter;stroke-opacity:1;stop-color:#000000"
     x="504.48758"
     y="35.320312"
     id="text1000-4"><tspan
       sodipodi:role="line"
       id="tspan998-4"
       x="504.48758"
       y="35.320312"
       style="font-style:normal;font-variant:normal;font-weight:normal;font-stretch:normal;font-family:serif;-inkscape-font-specification:serif">Your project</tspan><tspan
       sodipodi:role="line"
       x="504.48758"
       y="80.320312"
       id="tspan1984-4"
       style="font-style:normal;font-variant:normal;font-weight:normal;font-stretch:normal;font-family:serif;-inkscape-font-specification:serif">on GitLab</tspan><tspan
       sodipodi:role="line"
       x="504.48758"
       y="125.32031"
       id="tspan1002-4"
       style="font-style:normal;font-variant:normal;font-weight:normal;font-stretch:normal;font-family:serif;-inkscape-font-specification:serif" /></text>
  <text
     xml:space="preserve"
     id="text2030"
     style="font-weight:bold;font-size:48px;line-height:12px;font-family:serif;-inkscape-font-specification:'serif Bold';text-decoration:none;text-decoration-line:none;text-decoration-color:#000000;letter-spacing:0px;word-spacing:0px;white-space:pre;shape-inside:url(#rect2032);fill:#000000;stroke:#000000;stroke-width:0.999999px;stroke-linecap:butt;stroke-linejoin:miter;stroke-opacity:1;stop-color:#000000;"
     transform="translate(147.77316,-16.386509)" />
</svg>
